<?xml version="1.0" encoding="utf-8"?>
<!-- Generator: Adobe Illustrator 19.2.0, SVG Export Plug-In . SVG Version: 6.00 Build 0)  -->
<svg version="1.1" id="Layer_1" xmlns="http://www.w3.org/2000/svg" xmlns:xlink="http://www.w3.org/1999/xlink" x="0px" y="0px"
	 viewBox="0 0 128 128" style="enable-background:new 0 0 128 128;" xml:space="preserve">
<path d="M65.5,4.6c9.4,0,17,7.6,17,16.9c0,9.3-7.6,16.9-17,16.9c-9.4,0-17-7.6-17-16.9C48.5,12.2,56.1,4.6,65.5,4.6z M52.8,122.4
	l-16-16.6c-3.4-3.5-4.4-10-0.7-13.7l11.5-11.4L61,94.1l-9.9,9.9l10.1,10.1C67.2,120,59,128.6,52.8,122.4z M94,105.8l-16,16.6
	c-6.2,6.2-14.4-2.4-8.4-8.3l10.1-10.1l-9.9-9.9l13.5-13.5c0,0,11.4,11.4,11.5,11.4C98.4,95.8,97.5,102.2,94,105.8z M97.4,75
	L83.3,60.9v13H65.5H47.5V61L33.8,74.8c-6.2,6.2-14.6-1.8-8.4-8l22.7-22.7c1.9-1.8,3.9-3,7.1-3h10.3h10.1c3.2,0,5.3,1.1,7.3,3
	L105.8,67C111.7,72.9,103.1,80.9,97.4,75z"/>
<path d="M65.5,38.5c9.4,0,17-7.6,17-16.9c0-9.4-7.6-16.9-17-16.9c-9.4,0-17,7.6-17,16.9C48.5,30.9,56.1,38.5,65.5,38.5z"/>
<path d="M65.5,38.5c9.4,0,17-7.6,17-16.9c0-9.4-7.6-16.9-17-16.9c-9.4,0-17,7.6-17,16.9C48.5,30.9,56.1,38.5,65.5,38.5z"/>
<path d="M82.8,44.1c-1.9-1.8-4.1-3-7.3-3H65.5H55.2c-3.2,0-5.2,1.2-7.1,3L25.4,66.8c-6.2,6.2,2.2,14.1,8.4,8L47.5,61v12.9h17.9h17.8
	v-13L97.4,75c5.7,6,14.3-2,8.4-8L82.8,44.1z"/>
<path d="M82.8,44.1c-1.9-1.8-4.1-3-7.3-3H65.5H55.2c-3.2,0-5.2,1.2-7.1,3L25.4,66.8c-6.2,6.2,2.2,14.1,8.4,8L47.5,61v12.9h17.9h17.8
	v-13L97.4,75c5.7,6,14.3-2,8.4-8L82.8,44.1z"/>
<path d="M83.2,80.6L69.8,94.1l9.9,9.9l-10.1,10.1c-6,6,2.3,14.5,8.4,8.3l16-16.6c3.5-3.5,4.4-10,0.7-13.7
	C94.7,92.1,83.2,80.6,83.2,80.6z"/>
<path d="M83.2,80.6L69.8,94.1l9.9,9.9l-10.1,10.1c-6,6,2.3,14.5,8.4,8.3l16-16.6c3.5-3.5,4.4-10,0.7-13.7
	C94.7,92.1,83.2,80.6,83.2,80.6z"/>
<path d="M51.1,103.9l9.9-9.9L47.6,80.6L36,92.1c-3.7,3.7-2.7,10.2,0.7,13.7l16,16.6c6.2,6.2,14.4-2.4,8.5-8.3L51.1,103.9z"/>
<path d="M51.1,103.9l9.9-9.9L47.6,80.6L36,92.1c-3.7,3.7-2.7,10.2,0.7,13.7l16,16.6c6.2,6.2,14.4-2.4,8.5-8.3L51.1,103.9z"/>
</svg>
