<?xml version="1.0" encoding="utf-8"?>
<!-- Generator: Adobe Illustrator 19.2.0, SVG Export Plug-In . SVG Version: 6.00 Build 0)  -->
<svg version="1.1" id="Layer_1" xmlns="http://www.w3.org/2000/svg" xmlns:xlink="http://www.w3.org/1999/xlink" x="0px" y="0px"
	 viewBox="0 0 128 128" style="enable-background:new 0 0 128 128;" xml:space="preserve">
<g>
	<path d="M79.9,23.4c0-4-3.5-6.5-7.8-6.5c0,0-16.4,0-16.3,0c-4.2,0-7.8,2.5-7.8,6.5v11H32.7v76.5h62.6V34.4H79.9V23.4z M74.2,34.4
		H53.7V23.1h20.5V34.4z"/>
	<path d="M7.2,45.8c0,0.2,0,53.3,0,53.3c0,7.4,5.6,11.7,11.4,11.7H27V34.2h-8.4C12.7,34.2,7.2,39.2,7.2,45.8z"/>
	<path d="M109.4,34.2H101v76.6h8.4c5.8,0,11.4-4.3,11.4-11.7c0,0,0-53.1,0-53.3C120.8,39.2,115.3,34.2,109.4,34.2z"/>
</g>
</svg>
