<svg version="1.1" xmlns="http://www.w3.org/2000/svg" xmlns:xlink="http://www.w3.org/1999/xlink" x="0px"
	 y="0px" viewBox="0 0 249.5 157" style="enable-background:new 0 0 249.5 157;" xml:space="preserve">
<path d="M233.9,69.4c-9.2-9.2-21.3-14.3-34.2-14.3c-4.1,0-8.1,0.5-11.9,1.6L168,5.9c-1.1-2.7-3.6-4.3-6.3-4.3h-22.8
	c-3.8,0-6.9,3.1-6.9,7s3.1,7,6.9,7H157c0.2,0.5,0.4,1,0.6,1.6c1,2.8,2.5,7.2,4.1,11.3l-67.1-0.1l-4.3-5.8l15.6-1.8
	c3-0.1,5.4-2.6,5.4-5.6c0-3.1-2.5-5.6-5.5-5.6H73.3c-3.1,0-5.5,2.5-5.5,5.6c0,0.2,0,0.3,0,0.5c0,1.8-0.1,5.1,2.1,7.1
	c1.3,1.2,3,1.7,5.1,1.5l7.2,10.4L68.4,58.8c-6-2.5-12.2-3.8-18.5-3.8C22.9,55,1,77.4,1,104.9c0,27.6,21.9,50,48.8,50
	c24.6,0,45.1-18.3,48.4-42.9h28.9c3.2,0,5.8-1.3,7.5-3.6L170,49.2c1.6,4,3.4,8.4,5.1,12.7c-15,9-24.2,25.3-24.2,43.1
	c0,27.6,21.9,50,48.8,50c27,0,48.9-22.4,48.9-49.9C248.6,91.6,243.4,78.9,233.9,69.4z M202.3,111.6c3.5-1.4,5.2-5.6,3.8-9.1
	L193,69.8c2.3-0.5,4.5-0.7,6.7-0.7c19.3,0,35,16.1,35,36c0,9.7-3.7,18.8-10.5,25.6c-6.6,6.6-15.3,10.3-24.5,10.3
	c-9.2,0-17.9-3.7-24.5-10.3c-6.8-6.9-10.6-16-10.5-25.7c0-12,5.9-23.2,15.6-29.8c7,17.6,13,32.5,13,32.5c0.7,1.8,2,3.1,3.7,3.9
	C198.8,112.3,200.7,112.3,202.3,111.6z M50.1,140.8c-0.1,0-0.1,0-0.2,0h0c-19.3,0-35-16.1-35-36C14.9,85,30.6,68.9,50,68.9
	c3.9,0,7.7,0.7,11.4,2L44,101.3c-1.3,2.1-1.3,4.9,0,7.1c1.3,2.1,3.6,3.5,5.9,3.5h34.4C81.1,128.5,66.8,140.8,50.1,140.8z M82.1,62.4
	c3-5.2,5.8-10,7.9-13.7L116.8,98c-5-0.1-11.6-0.1-18.5-0.1C96.5,85.3,90,73.8,80.2,65.8L82.1,62.4z M84.3,97.9H61.9l11.4-19.8
	C79,83.4,82.9,90.3,84.3,97.9z M157.3,42.5C154,47.6,150,55.1,145.8,63c-5.3,10-10.8,20.2-15.7,27.3l-27.6-47.8
	c8.7,0,20.4,0,31.4,0.1C142.8,42.5,151.2,42.5,157.3,42.5z"/>
</svg>
