<!-- Generator: Adobe Illustrator 19.2.0, SVG Export Plug-In  -->
<svg version="1.1"
	 xmlns="http://www.w3.org/2000/svg" xmlns:xlink="http://www.w3.org/1999/xlink" xmlns:a="http://ns.adobe.com/AdobeSVGViewerExtensions/3.0/"
	 x="0px" y="0px" width="68.8px" height="121.6px" viewBox="0 0 68.8 121.6" style="enable-background:new 0 0 68.8 121.6;"
	 xml:space="preserve">
<defs>
</defs>
<path d="M8,106.8c0,0,0-3.3,0-3.8h47.5c-0.7,1.4-1.2,3-1.5,4.5c-0.4,2.1-0.2,4.1,0.3,6l-39.7-0.1C10.9,113.4,8,110.4,8,106.8
	 M60.5,21.2c0,6.8-0.1,67-0.1,73.8H15l28.4-23.8l-0.1-50.1C45.9,21.2,58,21.2,60.5,21.2 M64.9,113.5H63c-1.1-1.2-1.5-2.8-1.2-4.7
	c0.5-3.1,2.8-5.7,3.9-6.1l0,0c1.5-0.5,2.7-2,2.7-3.7l0.1-81.8c0-2.2-1.8-4-4-4c0,0-16.5,0-21.1,0c0-3.9,0-9.2,0-9.2
	c0-1.6-0.9-3.1-2.4-3.7S37.8,0,36.7,1.1L8.9,28.7c-4.9,4.8-8.7,14-8.7,20.8L0,106.8c0,8,6.5,14.6,14.5,14.6l50.3,0.2
	c2.2,0,4-1.8,4-4l0,0C68.8,115.3,67.1,113.6,64.9,113.5"/>
</svg>
