<?xml version="1.0" encoding="utf-8"?>
<!-- Generator: Adobe Illustrator 21.0.2, SVG Export Plug-In . SVG Version: 6.00 Build 0)  -->
<svg version="1.2" baseProfile="tiny" id="house" xmlns="http://www.w3.org/2000/svg" xmlns:xlink="http://www.w3.org/1999/xlink"
	 x="0px" y="0px" viewBox="0 0 128 128" xml:space="preserve">
<g>
	<rect x="54.5" y="70.4" fill="none" width="16" height="15"/>
	<rect x="32" y="25.5" fill="none" width="15" height="15"/>
	<polygon fill="none" points="62.5,48 54.5,48 54.5,63 70.5,63 70.5,48 62.6,48 	"/>
	<rect x="32" y="70.4" fill="none" width="15" height="15"/>
	<rect x="32" y="48" fill="none" width="15" height="15"/>
	<polygon fill="none" points="62.5,25.5 54.5,25.5 54.5,40.5 62.5,40.5 62.6,40.5 70.5,40.5 70.5,25.5 62.6,25.5 	"/>
	<rect x="78" y="25.5" fill="none" width="15" height="15"/>
	<polygon fill="none" points="78,63 79.3,63 93,63 93,48 78,48 	"/>
	<polygon fill="none" points="78,70.4 78,85.4 79.3,85.4 93,85.4 93,70.4 79.3,70.4 	"/>
	<path d="M108,10.5H85.5V2h-46v8.5H17V128h37.5v-24.6h16V128H108V10.5z M47,85.4H32v-15h15V85.4z M47,63H32V48h15V63z M47,40.5H32
		v-15h15V40.5z M70.5,85.4h-16v-15h16V85.4z M70.5,63h-16V48h7.9h0.1h7.9V63z M70.5,40.5h-7.9h-0.1h-7.9v-15h7.9h0.1h7.9V40.5z
		 M93,85.4H78v-15h15V85.4z M93,63H79.3H78V48h15V63z M93,40.5H78v-15h15V40.5z"/>
</g>
</svg>
