<?xml version="1.0" encoding="utf-8"?>
<!-- Generator: Adobe Illustrator 19.2.0, SVG Export Plug-In . SVG Version: 6.00 Build 0)  -->
<svg version="1.1" id="Layer_1" xmlns="http://www.w3.org/2000/svg" xmlns:xlink="http://www.w3.org/1999/xlink" x="0px" y="0px"
	 viewBox="0 0 128 128" style="enable-background:new 0 0 128 128;" xml:space="preserve">
<path d="M32.6,104.1v9.3c0,5.2-4.2,9.3-9.3,9.3c-5.1,0-9.3-4.1-9.3-9.3v-9.3H4.6V73.7v0c0-6.7,4.5-12.2,10.6-13.9l10.9-25.9
	c1.6-3.8,5.3-6.5,9.7-6.5h55.7c4.4,0,8.1,2.7,9.7,6.5L112,59.8c6.1,1.7,10.6,7.2,10.6,13.9l0,0v30.4h-9.5l0,9.3
	c0,5.2-4.2,9.3-9.3,9.3c-5.2,0-9.3-4.1-9.3-9.3l0-9.3H32.6z M23.9,87.4c5.2,0,9.4-4.2,9.4-9.4c0-5.2-4.2-9.4-9.4-9.4
	c-5.2,0-9.4,4.2-9.4,9.4C14.5,83.2,18.7,87.4,23.9,87.4 M112.1,78c0-5.2-4.2-9.4-9.4-9.4c-5.2,0-9.4,4.2-9.4,9.4
	c0,5.2,4.2,9.4,9.4,9.4C107.9,87.4,112.1,83.2,112.1,78 M102.7,59.3l-9.3-22.4C93,35.8,91.9,35,90.6,35h-54c-1.2,0-2.3,0.8-2.7,1.9
	l-9.3,22.4H102.7z"/>
</svg>
