<?xml version="1.0" encoding="utf-8"?>
<svg version="1.1" id="checkmark"  xmlns:svg="http://www.w3.org/2000/svg"
	 xmlns="http://www.w3.org/2000/svg" xmlns:xlink="http://www.w3.org/1999/xlink" x="0px" y="0px" viewBox="0 0 256 256"
	 style="enable-background:new 0 0 256 256;" xml:space="preserve">
<path d="M116.3,252.8c-31.4-3-62.1-18.6-82.4-41.8C4.2,177.1-5.3,130.4,8.8,88c6.8-20.6,20-40.6,35.8-54.4
	c33.9-29.7,80.6-39.2,123-25.1c20.6,6.8,40.6,20,54.4,35.8c29.7,33.9,39.2,80.6,25.1,123c-6.8,20.6-20,40.6-35.8,54.4
	C185.2,244.6,150.2,256.1,116.3,252.8L116.3,252.8z M161.3,139.6L216,84.9l-12.5-12.4L191,60.1L149,102l-42,41.9l-20.4-20.4
	c-11.2-11.2-20.8-20.4-21.2-20.4S59,108.8,52,115.7l-12.7,12.7l32.9,32.9c18.1,18.1,33.2,32.9,33.6,32.9
	C106.4,194.3,131.3,169.7,161.3,139.6L161.3,139.6z"/>
</svg>
