<!-- Generator: Adobe Illustrator 19.2.0, SVG Export Plug-In  -->
<svg version="1.1"
	 xmlns="http://www.w3.org/2000/svg" xmlns:xlink="http://www.w3.org/1999/xlink" xmlns:a="http://ns.adobe.com/AdobeSVGViewerExtensions/3.0/"
	 x="0px" y="0px" width="62px" height="124.5px" viewBox="0 0 62 124.5" style="enable-background:new 0 0 62 124.5;"
	 xml:space="preserve">
<defs>
</defs>
<path d="M31.1,0c8.6,0,15.6,7,15.6,15.6s-7,15.6-15.6,15.6s-15.6-7-15.6-15.6S22.5,0,31.1,0z M47.4,35.1H14.8
	C6.6,35.5,0,42.3,0,50.6v21.5c0.1,3.2,2.7,5.7,5.8,5.7s5.8-2.6,5.8-5.7v-18c0-1.1,0.9-1.9,2-1.9s1.9,0.9,1.9,1.9v63.6
	c0,3.8,3,6.8,6.8,6.8s6.8-3,6.8-6.8V85.6c0-1.1,0.9-1.9,1.9-1.9c1.1,0,1.9,0.9,1.9,1.9v32.1c0,3.8,3,6.8,6.8,6.8
	c3.8,0,6.8-3,6.8-6.8V54.1c0-1.1,0.8-1.9,1.9-1.9c1.1,0,2,0.9,2,1.9v18c0.1,3.2,2.7,5.7,5.8,5.7s5.8-2.6,5.8-5.7V50.6
	C62.2,42.3,55.7,35.5,47.4,35.1z"/>
</svg>