<?xml version="1.0" encoding="utf-8"?>
<!-- Generator: Adobe Illustrator 19.2.0, SVG Export Plug-In . SVG Version: 6.00 Build 0)  -->
<svg version="1.1" id="Layer_1" xmlns="http://www.w3.org/2000/svg" xmlns:xlink="http://www.w3.org/1999/xlink" x="0px" y="0px"
	 viewBox="0 0 256 256" style="enable-background:new 0 0 256 256;" xml:space="preserve">
<path d="M120,97.1l-11.5,8.8l15.1,20.4l11.3-8.8c3.8,3.2,7.7,5.5,12.3,7.1l-2.1,14.3l25.1,3.6l2.1-14.3c4.6-0.4,9.4-1.9,13.6-3.6
	l8.8,11.4l20.3-15.1l-8.8-11.4c3.1-3.8,5.4-7.8,7.1-12.4l14.2,2.1l3.6-25.2l-14-1.9c-0.4-4.6-1.9-9.5-3.6-13.7l11.3-8.8l-15.3-20.4
	L198.2,38c-3.8-3.2-7.7-5.5-12.3-7.1l2.1-14.3L162.9,13l-2.1,14.3c-4.6,0.4-9.4,1.9-13.6,3.6l-8.8-11.6l-20.3,15.1l8.8,11.4
	c-3.1,3.8-5.4,7.8-7.1,12.4l-14.2-2.1L102,81.3l14.2,2.1C117.1,88.1,118.1,92.7,120,97.1z M146.2,50.2c15.1-11.4,36.6-8.4,48.1,6.7
	c11.3,15.1,8.2,37-6.7,48.4c-14.9,11.4-36.6,8.4-48.1-6.7C128,83.2,131.1,61.6,146.2,50.2z M224.2,150.3l-11.1,8.4
	c-0.6-0.4-1.5-1.1-2.5-1.5l2.3-13.7l-17.2-2.3l-2.1,13.7c-0.8,0.2-2.1,0.4-2.9,0.6l-8.2-10.9l-13.8,10.5l8.2,10.9
	c-0.2,0.4-0.6,1.1-0.8,1.5c-0.2,0.2-0.4,0.6-0.6,0.8l-13.6-2.1l-2.3,17.2l13.6,2.1c0.2,0.8,0.4,2.1,0.6,2.9l-10.9,8.2l10.5,13.9
	l11.1-8.2c0.6,0.4,1.5,0.8,2.5,1.3l-1.9,13.9l17.2,2.3l2.1-14.1c0.6-0.2,1.5-0.4,2.5-0.6l8.8,11.4l13.8-10.5l-8.8-11.4
	c0.2-0.4,0.4-0.6,0.6-1.1c0.2-0.2,0.4-0.4,0.4-0.8l14.2,2.1l2.3-17.2l-14-2.1c0-0.8-0.4-1.9-0.6-2.5l11.3-8.8L224.2,150.3z
	 M200.5,191.5c-6.1,0.6-11.5-3.6-12.3-9.5c-0.6-6.1,3.6-11.6,9.4-12.4c6.1-0.6,11.5,3.6,12.3,9.5
	C210.8,185.2,206.6,190.7,200.5,191.5z M48.1,190.9l-18.4,13.9l17.2,22.9l18.6-14.1c1.3,0.6,2.5,1.5,3.6,2.1L65.6,239l28.2,4
	l3.3-23.5c0.6-0.2,1.3-0.4,2.3-0.6c0.4-0.2,1-0.2,1.5-0.4l14.2,19.1l22.8-17.2l-14-18.7c0.8-1.1,1.5-2.3,2.3-3.6l23.2,3.4l4-28.4
	l-22.8-3.4c-0.2-1.5-0.6-2.9-1-4.4l18.2-13.7l-17.2-22.9l-18,13.7c-1.3-0.8-2.7-1.9-4-2.5l3.1-22.5l-28.2-4L80.5,136
	c-0.8,0.2-1.9,0.4-2.9,0.6c-0.6,0.2-1.3,0.2-1.9,0.4L62.3,119l-22.8,17.2l13.4,18.1c-0.8,1.3-1.9,2.7-2.5,4.2L28,155.1l-4,28.4
	l22.8,3.4C47,187.7,47.6,189.2,48.1,190.9z M67.3,161c9.4-11.8,26.4-13.9,38.1-4.6s13.8,26.5,4.6,38.3c-9.4,11.8-26.4,13.9-38.1,4.6
	C60.2,190,58.3,173,67.3,161z"/>
</svg>
