<?xml version="1.0" encoding="utf-8"?>
<!-- Generator: Adobe Illustrator 19.2.0, SVG Export Plug-In . SVG Version: 6.00 Build 0)  -->
<svg version="1.2" baseProfile="tiny" id="_x31_" xmlns="http://www.w3.org/2000/svg" xmlns:xlink="http://www.w3.org/1999/xlink"
	 x="0px" y="0px" viewBox="0 0 256 256" xml:space="preserve">
<path id="_x31__30_" d="M126.1,4c0,0,4.9,16.1,3.1,29c-1.8,14.9-13.5,28.2-24.1,40.4c-9.6,10.8-33.9,26.9-35.9,54.9
	C62.7,107.5,52.4,97.7,40,92.6c2.9,7.8,2,22-7.1,35.7c-9.8,14.7-30,32.2-26.3,66.3c3.9,33.5,36.3,58.2,65.5,58.2
	c-16.3-20.2-25.1-34.5-27.3-54.1c-2.2-21,13.5-34.9,13.5-34.9s14.3,37.6,52,35.7c-6.7-27.3-7.8-63.5,14.3-86.3
	c25.9-26.1,31.4-47.4,31.4-47.4s11.8,26.1,0,61.2c-5.3,16.3-3.3,54.3,24.3,72.7c5.1-23.5,17.6-38.6,17.6-38.6
	c5.3,18.2,16.7,34.9,16.5,52.7c-0.2,19.8-20.8,39.2-33.7,39.2c25.9,0,66.1-9.8,66.1-41.4c0-29.8-19-45.3-23.3-62
	c-5.5-21.4-0.6-44.9-0.6-44.9s-22.7,7.1-33.5,24.1C190,113.8,212.9,29.9,126.1,4z"/>
</svg>
