<svg version="1.1" id="Layer_1" xmlns="http://www.w3.org/2000/svg" xmlns:xlink="http://www.w3.org/1999/xlink" x="0px" y="0px"
	 viewBox="0 0 256 121" style="enable-background:new 0 0 256 121;" xml:space="preserve">
<path d="M48.7,81.4l-37.5,27.2c-0.4,0.3-0.7,0.4-1.2,0.4c-1.6,0-3-1.9-3-4.2c0-0.9,0.3-1.6,0.4-2.3l22.2-40.8L7.4,20.9
	C7.1,20.2,7,19.5,7,18.7c0-2.5,1.3-4.4,3-4.4c0.4,0,0.7,0.1,1.2,0.4L48.7,42c136.7-78.4,198.4,2.5,198.4,2.5l0,0
	c0.3,0.4,0.4,1,0.4,1.6c0,0.9-0.3,1.6-0.7,1.9l-23.5,16.7c-0.9,0.9-1.3,1.8-1.3,3.2c0,1.9,0.9,3.4,2.2,3.4h25.9
	c0.4,0,0.9,0.4,0.9,1.2c0,0.3,0,0.7-0.1,0.9l0,0C179.3,158.3,48.7,81.4,48.7,81.4z M217.3,43.4c0-6.7-5.4-12.1-11.6-12.1
	c-6.3,0-11.6,5.6-11.6,12.1c0,6.7,5.4,12.1,11.6,12.1C212,55.6,217.3,50,217.3,43.4z"/>
</svg>
