<?xml version="1.0" encoding="utf-8"?>
<!-- Generator: Adobe Illustrator 19.2.0, SVG Export Plug-In . SVG Version: 6.00 Build 0)  -->
<svg version="1.1" id="Gift" xmlns="http://www.w3.org/2000/svg" xmlns:xlink="http://www.w3.org/1999/xlink" x="0px" y="0px"
	 viewBox="0 0 128 128" style="enable-background:new 0 0 128 128;" xml:space="preserve">
<g id="_x33__19_">
	<path d="M117.8,99H85.2c-0.6,1.4-1.5,2.8-2.7,4c-2.4,2.4-5.7,3.7-9.1,3.7s-6.7-1.3-9.1-3.7L41.2,80.1c-1-1-1-2.6,0-3.6
		c1-1,2.6-1,3.6,0l23.1,23.1c3,3,7.9,3,11,0c3-3,3-7.9,0-11L50.1,59.9c-4.8-4.8-11-7.1-17.1-7.2H3.1v30.9h14.4
		c3.3,0,6.6,1.3,9.1,3.7l20,20c4.9,4.9,11.7,7.2,18,7.2h53.1c4.3,0,7.7-3.5,7.7-7.7S122,99,117.8,99z"/>
</g>
</svg>
