<?xml version="1.0" encoding="utf-8"?>
<!-- Generator: Adobe Illustrator 19.2.0, SVG Export Plug-In . SVG Version: 6.00 Build 0)  -->
<svg version="1.1" id="Layer_1" xmlns="http://www.w3.org/2000/svg" xmlns:xlink="http://www.w3.org/1999/xlink" x="0px" y="0px"
	 viewBox="0 0 203.4 242" style="enable-background:new 0 0 203.4 242;" xml:space="preserve">
<path d="M111.6,1C69.9,1,31.5,32.3,23.5,66.7c-1.8,7.7-3.8,27.7-3.8,27.7L0.6,144.7c-0.4,0.9-0.6,1.8-0.6,2.9c0,4.1,3.3,7.4,7.4,7.4
	h12.3v25.7c0,20,16.2,36.2,36.2,36.2h14.4V243h98v-77.9c21.4-16.8,35.1-42.9,35.1-72.2C203.4,42.1,162.3,1,111.6,1z M42.3,112.7
	c-5.6,0-10.2-4.6-10.2-10.3c0-5.6,4.6-10.2,10.2-10.2c5.7,0,10.3,4.6,10.3,10.2C52.6,108.1,48,112.7,42.3,112.7z M171.6,144.6
	c0,0,3.7-42.3-46.2-42.3c-71.8-1.6-70.9-64.9-70.9-64.9C69,22,89.5,12.3,112.4,12.3c43.8,0,79.4,35.5,79.4,79.4
	C191.8,112,184.1,130.5,171.6,144.6z"/>
</svg>