<?xml version="1.0" encoding="utf-8"?>
<!-- Generator: Adobe Illustrator 19.0.0, SVG Export Plug-In . SVG Version: 6.00 Build 0)  -->
<svg version="1.2" baseProfile="tiny" id="Layer_1" xmlns="http://www.w3.org/2000/svg" xmlns:xlink="http://www.w3.org/1999/xlink"
	 x="0px" y="0px" viewBox="-63 65 128 128" xml:space="preserve">
<path d="M60,125.6l-25.9-23.7V74.1H18.8v13.8L0.9,71.6l-59.6,53.3c-1.5,1.2-2.5,3.2-2.5,5.3c0,3.8,3.1,6.8,6.8,6.8
	c1.8,0,3.5-0.7,4.7-1.9l9.2-8.3v64H4.1v-32.1h22.7v32.1h15v-63.5l8,7.4c1.2,1.4,3.1,2.3,5.1,2.3c3.8,0,6.8-3.1,6.8-6.8
	C61.7,128.4,61.1,126.8,60,125.6z M-5.2,146h-16.7v-17.2h16.7V146z M23.7,146H7v-17.2h16.7V146z"/>
</svg>
