<?xml version="1.0" encoding="utf-8"?>
<!-- Generator: Adobe Illustrator 19.2.0, SVG Export Plug-In . SVG Version: 6.00 Build 0)  -->
<svg version="1.2" baseProfile="tiny" id="Layer_1" xmlns="http://www.w3.org/2000/svg" xmlns:xlink="http://www.w3.org/1999/xlink"
	 x="0px" y="0px" viewBox="0 0 125.3 256" xml:space="preserve">
<path d="M87.1,219.3l-20.4-16.4l20.4-12.1l-20.2-16l19.8-11.7l-20.4-16.2l24.7-16.4v-25.1c14.8-9.5,24.7-26.1,24.7-45.1
	c0-29.6-23.9-53.6-53.6-53.6S8.7,30.7,8.7,60.2c0,18.8,9.7,35.4,24.3,44.9v118.4l27.7,26.3L87.1,219.3z M62.2,43.6
	c-6.5,0-11.9-5.3-11.9-11.9s5.3-11.9,11.9-11.9s11.9,5.3,11.9,11.9C74.1,38.4,68.7,43.6,62.2,43.6z"/>
</svg>
