<?xml version="1.0" encoding="utf-8"?>
<!-- Generator: Adobe Illustrator 19.0.0, SVG Export Plug-In . SVG Version: 6.00 Build 0)  -->
<svg version="1.2" baseProfile="tiny" id="Layer_1" xmlns="http://www.w3.org/2000/svg" xmlns:xlink="http://www.w3.org/1999/xlink"
	 x="0px" y="0px" viewBox="-63 65 128 128" xml:space="preserve">
<path d="M39.8,105.2c0-11.5-4.2-21.1-12.2-28c-7-6-16.5-9.3-26.6-9.3s-19.6,3.3-26.6,9.3c-8,6.8-12.1,16.5-12.1,28
	c0,12.1,5.6,22.1,10.5,30.9c3.8,6.7,7.3,13.3,8.1,19.8H-21v22.5h9.2c0,0,0-1.6,0-1.4c0,7.2,5.8,12.9,12.9,12.9S14,184.2,14,177.1
	c0-0.2,0,1.4,0,1.4h9.1v-22.5h-1.8c0.7-6.6,4.3-13,8.1-19.8C34.2,127.3,39.8,117.3,39.8,105.2z M16.4,155.9h-30.8
	c-0.7-7.8-4.8-15-8.7-22.1l0,0l0,0c-4.6-8.2-9.9-17.6-9.9-28.5c0-10.1,3.7-18.5,10.5-24.3c6.2-5.3,14.5-8.1,23.5-8.1
	s17.2,2.8,23.5,8.1c6.9,5.9,10.5,14.3,10.5,24.3c0,10.8-5.3,20.3-9.9,28.6C21.2,140.9,17.1,148.1,16.4,155.9z"/>
</svg>
