<?xml version="1.0" encoding="utf-8"?>
<!-- Generator: Adobe Illustrator 19.0.0, SVG Export Plug-In . SVG Version: 6.00 Build 0)  -->
<svg version="1.2" baseProfile="tiny" id="_x31_" xmlns="http://www.w3.org/2000/svg" xmlns:xlink="http://www.w3.org/1999/xlink"
	 x="0px" y="0px" viewBox="-63 65 128 128" xml:space="preserve">
<g>
	<path d="M29.5,115.3V98.4c0-16.5-13.5-30-30-30s-30,13.5-30,30v16.9H-40v71.9h77.9v-71.9H29.5z M7.9,169.2h-18l2.4-14.1
		c-3.3-2.1-5.4-5.7-5.4-9.9c0-6.6,5.4-12,12-12c6.6,0,12,5.4,12,12c0,4.2-2.1,7.8-5.4,9.9L7.9,169.2z M17.6,115.3h-6.7h-29.3V98.4
		c0-9.9,8.1-18,18-18c9.9,0,18,8.1,18,18V115.3z"/>
</g>
</svg>
