<?xml version="1.0" encoding="utf-8"?>
<!-- Generator: Adobe Illustrator 19.2.0, SVG Export Plug-In . SVG Version: 6.00 Build 0)  -->
<svg version="1.1" id="Layer_1" xmlns="http://www.w3.org/2000/svg" xmlns:xlink="http://www.w3.org/1999/xlink" x="0px" y="0px"
	 viewBox="0 0 203.4 205" style="enable-background:new 0 0 203.4 205;" xml:space="preserve">
<path d="M102.1,204c55.8,0,101.4-45.3,101.4-101.4S158.2,1.2,102.1,1.2S1,46.8,1,102.9C1,158.7,46.3,204,102.1,204z M96.5,111.2
	c-18.6-6.5-30.2-15.9-30.2-32.6c0-15.4,10.2-27.5,28.9-31.3V30.6h14v15.9c11.6,0,20,2.4,26.2,5.7l-5.7,20
	c-4.6-1.9-12.1-5.1-22.4-5.1s-15.9,5.1-15.9,10.2c0,7,6.5,9.7,20.5,15.4c19.1,7,28,16.7,28,32.6s-9.7,28-30.2,32.6v15.9h-14v-15.4
	c-12.1,0-24.3-3.2-30.2-6.5l5.1-20.5c6.5,3.2,16.7,7,27.5,7c11.6,0,17.3-5.1,17.3-12.1S109.9,116.4,96.5,111.2z"/>
</svg>