<?xml version="1.0" encoding="utf-8"?>
<!-- Generator: Adobe Illustrator 19.2.0, SVG Export Plug-In . SVG Version: 6.00 Build 0)  -->
<svg version="1.1" id="Layer_1" xmlns="http://www.w3.org/2000/svg" xmlns:xlink="http://www.w3.org/1999/xlink" x="0px" y="0px"
	 viewBox="0 0 256 130" style="enable-background:new 0 0 256 130;" xml:space="preserve">
<path id="XMLID_1_" d="M170.4,65.5c0,23.5-19,42.2-42.2,42.2S86,88.8,86,65.5c0-23.5,19-42.2,42.2-42.2S170.4,42.1,170.4,65.5z
	 M254.4,4.1v122.4H1.6V4.1H254.4z M217.3,16.4H38.5c-3.3,12.2-12.4,22.2-24.7,25.3v46.9c12.2,3.3,21.6,13.3,24.7,23.5h179
	c3.3-10.2,12.6-20.4,24.9-23.5V41.7C230,38.6,220.2,28.6,217.3,16.4z"/>
</svg>
