<?xml version="1.0" encoding="utf-8"?>
<!-- Generator: Adobe Illustrator 19.2.0, SVG Export Plug-In . SVG Version: 6.00 Build 0)  -->
<svg version="1.1" id="_x31_" xmlns="http://www.w3.org/2000/svg" xmlns:xlink="http://www.w3.org/1999/xlink" x="0px" y="0px"
	 viewBox="0 0 128 128" style="enable-background:new 0 0 128 128;" xml:space="preserve">
<path d="M33.8,111.5c9.3-4.6,15.6-11.5,16.6-17.4l0,0v-0.5c0-0.7,0.2-1.5,0-2.2V24.5h63.1v62.1c-5.4-2-13.9-1-22.3,3.2
	c-12,5.9-19.1,15.9-16.1,22.2c3,6.3,15.4,6.8,27.4,0.8c10-4.9,16.6-12.7,16.6-18.8h0.2V13.5H44.8v71.8c-5.4-1.9-13.9-0.8-22.2,3.2
	c-12,5.9-19.1,15.9-16.1,22.2C9.6,117.1,21.8,117.4,33.8,111.5z"/>
</svg>
