<?xml version="1.0" encoding="utf-8"?>
<!-- Generator: Adobe Illustrator 19.0.0, SVG Export Plug-In . SVG Version: 6.00 Build 0)  -->
<svg version="1.2" baseProfile="tiny" id="print" xmlns="http://www.w3.org/2000/svg" xmlns:xlink="http://www.w3.org/1999/xlink"
	 x="0px" y="0px" viewBox="384 -384 1024 1024" xml:space="preserve">
<path d="M745.7,273.8h309.6v44.6H745.7V273.8z M745.7,345.9h309.6v44.6H745.7V345.9z M745.7,418.1h309.6v44.6H745.7V418.1z
	 M1290.4-228.1h-149.3v-117.4H647.3v117.4H498c-57.2,0-103.6,51-103.6,113.9v350.6c0,62.9,46.4,113.9,103.6,113.9h130v-202h19.4v444
	h493.8v-444h19.4v202h129.9c57.2,0,103.6-51,103.6-113.9v-350.6C1394-177.1,1347.6-228.1,1290.4-228.1z M683.3-309.5h421.8v81.4
	H683.3V-309.5z M1105.1,556.2H683.3v-408h421.8V556.2z M1296.2-49h-84.7v-93.2h84.7V-49z"/>
</svg>
