<?xml version="1.0" encoding="utf-8"?>
<svg version="1.1" id="Layer_1" xmlns="http://www.w3.org/2000/svg" xmlns:xlink="http://www.w3.org/1999/xlink" x="0px" y="0px"
	 viewBox="0 0 180 256" style="enable-background:new 0 0 180 256;" xml:space="preserve">
<path d="M149.4,19.4C132.9,7.3,112.1,1.9,87,1.9C68.5,1.9,52,6.3,38.8,14C20.3,26.1,9.2,45.7,5.9,73.2c0,2.3,0,7.7,0,7.7
	c1,12.1,11.1,21.9,24.2,21.9S53,93.1,54.3,81l0,0l0,0c0-1,0-1,0-2.3l0,0c0-7.7,3.3-16.5,7.7-23c5.4-8.8,14.2-13.1,27.3-13.1
	s21.9,3.3,26.3,9.8c4.4,6.7,7.7,14.2,7.7,23c0,7.7-2.3,14.2-6.7,19.8c-2.3,3.3-5.4,6.7-9.8,9.8l-11.1,9.8
	C83.7,123.5,76,132.3,73.9,139c-3.3,6.7-4.4,19.8-5.4,38.4h44.9c0-8.8,1-15.4,2.3-19.8c2.3-6.7,6.7-12.1,13.1-17.5l12.1-8.8
	c12.1-8.8,19.8-16.5,24.2-23c7.7-9.8,11.1-21.9,11.1-36.1C174.5,49,165.7,31.5,149.4,19.4z M91.2,193.7c16.9,0,30.7,13.8,30.7,30.7
	c0,16.9-13.8,30.7-30.7,30.7s-30.7-13.8-30.7-30.7C60.5,207.4,74.3,193.7,91.2,193.7z"/>
</svg>
