<svg version="1.1" id="Edit" xmlns="http://www.w3.org/2000/svg" xmlns:xlink="http://www.w3.org/1999/xlink" x="0px" y="0px"
	 viewBox="0 0 121 128" style="enable-background:new 0 0 121 128;" xml:space="preserve">
<g>
	<path d="M76.5,94c-1,0-2,0.1-2.9,0.3h-0.1c-0.1,0-0.3,0-0.6,0c-1.6,0-2.9-1.3-2.9-2.9V1L58.7,12.2c-1.1,1.1-1.7,2.6-1.7,4V61
		L37.1,72.5c-1.4,0.9-3.1,0.3-3.9-1c-0.1-0.1-0.1-0.3-0.3-0.4c0,0,0-0.1-0.1-0.1c-0.3-0.9-0.7-1.7-1.1-2.6
		c-4.6-7.9-14.6-10.6-22.5-6C1.3,66.8-1.4,77,3.2,84.8c4.6,7.9,14.6,10.6,22.5,6L51.6,76c0.9-0.6,2-0.4,2.9,0c0.9,0.4,3.3,2,4.1,2.4
		c0.9,0.4,1.4,1.4,1.4,2.4v29.8c0,9.2,7.3,16.5,16.5,16.5S93,119.8,93,110.5S85.7,94,76.5,94z M22.8,85.8c-5.2,3-11.7,1.1-14.6-3.9
		c-3-5.2-1.1-11.7,3.9-14.6c5.2-3,11.7-1.1,14.6,3.9C29.7,76.3,28,83,22.8,85.8z M60.6,66.3c-1-1.7-0.4-3.9,1.3-4.9s3.9-0.4,4.9,1.3
		s0.4,3.9-1.3,4.9S61.6,68,60.6,66.3z M76.5,121.2c-5.8,0-10.7-4.9-10.7-10.7c0-5.8,4.7-10.7,10.7-10.7c5.9,0,10.7,4.9,10.7,10.7
		C87.2,116.3,82.3,121.2,76.5,121.2z"/>
	<path d="M73,52V67l0.4-0.2V67l38-22.1c1.2-0.7,2.2-2,2.6-3.5l4-15.5L73,52z"/>
</g>
</svg>