<?xml version="1.0" encoding="utf-8"?>
<!-- Generator: Adobe Illustrator 19.0.0, SVG Export Plug-In . SVG Version: 6.00 Build 0)  -->
<svg version="1.2" baseProfile="tiny" id="Layer_1" xmlns="http://www.w3.org/2000/svg" xmlns:xlink="http://www.w3.org/1999/xlink"
	 x="0px" y="0px" viewBox="0 0 256 256" xml:space="preserve">
<path id="XMLID_5_" d="M176.3,0H81.9C73.1,0,66,7.1,66,15.9v224.3c0,8.8,7.1,15.9,15.9,15.9H176c8.8,0,15.9-7.1,15.9-15.9V15.9
	C191.9,7.1,184.8,0,176.3,0z M129.1,247c-5.1,0-9.4-4.3-9.4-9.4c0-5.1,4.3-9.4,9.4-9.4c5.1,0,9.4,4.3,9.4,9.4
	C138.5,242.7,134.2,247,129.1,247z M181.1,218.3h-104V37.5h104.3v180.8H181.1z"/>
</svg>
