<?xml version="1.0" encoding="utf-8"?>
<!-- Generator: Adobe Illustrator 19.0.0, SVG Export Plug-In . SVG Version: 6.00 Build 0)  -->
<svg version="1.2" baseProfile="tiny" id="Layer_1" xmlns="http://www.w3.org/2000/svg" xmlns:xlink="http://www.w3.org/1999/xlink"
	 x="0px" y="0px" viewBox="0 0 256 256" xml:space="preserve">
<path d="M128.8,243.8c60.8,0.6,109.5-49.8,109.7-109.3c0.6-60.8-48.3-109.3-109.3-109.7c-61-0.4-109.5,49.8-109.7,109.3
	C18.9,194.9,69.3,243.4,128.8,243.8z M172.4,90.7c10.8,0.6,18.7,8.3,18.3,19.1c-0.6,10.8-8.3,18.7-19.1,18.3
	c-10.8-0.6-18.7-8.3-18.3-19.1C153.7,98.2,161.5,90.3,172.4,90.7z M129.2,214c-26.6-0.2-50.4-15.7-62.5-41.5
	c-2.1-5.1,0.6-10.8,5.5-13c5.1-2.1,10.8,0.6,14.5,6c7.9,17,24.5,28.1,43.2,28.5c18.7,0.4,34.9-10.6,42.7-27.9
	c2.8-5.7,9.1-7.7,13.6-5.3c5.7,2.8,8.1,7.9,5.3,13.6C180.7,198.5,155.8,214.5,129.2,214z M89.2,90.7c10.8,0.6,18.7,8.3,18.3,19.1
	c-0.6,10.8-8.3,18.7-19.1,18.3c-9.4-0.2-18.7-8.3-18.3-19.1C70.3,99.6,78.4,90.3,89.2,90.7z"/>
</svg>
