<svg version="1.1" id="Layer_1" xmlns="http://www.w3.org/2000/svg" xmlns:xlink="http://www.w3.org/1999/xlink" x="0px" y="0px"
	 viewBox="0 0 256 253" style="enable-background:new 0 0 256 253;" xml:space="preserve">
<path d="M2,69c0,13.7,9.6,25.3,22,29.6V233H2v18h252v-18h-22V98.6c12.9-3.9,21.7-15.4,22-29.6v-8H2V69z M65.3,68.3
	c0,6.5,6.8,31.5,31.7,31.5c21.7,0,31.2-19.6,31.2-31.5c0,11.1,7.4,31.4,31.5,31.4c21.7,0,31.4-21,31.4-31.4c0,14.4,9.7,26.4,23,30.2
	V233H42V98.6C55.4,95,65.3,82.9,65.3,68.3z M222.8,22h0.2V2H34v20L2,54h252L222.8,22z"/>
</svg>
