<?xml version="1.0" encoding="utf-8"?>
<svg version="1.1" id="_x31_" xmlns="http://www.w3.org/2000/svg" xmlns:xlink="http://www.w3.org/1999/xlink" x="0px" y="0px"
	 viewBox="0 0 128 128" style="enable-background:new 0 0 128 128;" xml:space="preserve">
<path id="_x30__1_" d="M115.4,57.9h-14.7C99.6,50.5,97,44.6,93,39.1l10.7-10.7c1.8-1.8,1.8-4.8,0-6.6c-1.8-1.8-4.8-1.8-6.6,0
	l-10.7,11c-5.2-4.4-11.4-6.6-18.8-7.7V10.4c0-2.9-1.8-4.8-4.8-4.8c-2.9,0-4.8,1.8-4.8,4.8v14.7c-7.4,1.1-13.3,3.7-18.8,7.7
	L28.5,22.2c-1.8-1.8-4.8-1.8-6.6,0c-1.8,1.8-1.8,4.8,0,6.6l10.7,10.7c-4.4,5.2-6.6,11.4-7.7,18.8H10.1c-2.9,0-4.8,1.8-4.8,4.8
	c0,2.9,1.8,4.8,4.8,4.8h14.7c1.1,7.4,3.7,13.3,7.7,18.8L21.9,97.3c-1.8,1.8-1.8,4.8,0,6.6c1.1,1.1,2.6,1.5,3.3,1.5s2.6-0.4,3.3-1.5
	l10.7-10.7c5.2,4.4,11.4,6.6,18.8,7.7v14.7c0,2.9,1.8,4.8,4.8,4.8c2.9,0,4.8-1.8,4.8-4.8V101c7.4-1.1,13.3-3.7,18.8-7.7L97,103.9
	c1.1,1.1,2.6,1.5,3.3,1.5c1.1,0,2.6-0.4,3.3-1.5c1.8-1.8,1.8-4.8,0-6.6L93,86.6c4.4-5.2,6.6-11.4,7.7-18.8h14.7
	c2.9,0,4.8-1.8,4.8-4.8C120.2,60.1,118.4,57.9,115.4,57.9z M62.8,33.9c15.8,0,28.7,12.9,28.7,28.7S78.6,91.4,62.8,91.4
	S34,78.5,34,62.7S46.9,33.9,62.8,33.9z"/>
</svg>
