<?xml version="1.0" encoding="utf-8"?>
<!-- Generator: Adobe Illustrator 19.2.0, SVG Export Plug-In . SVG Version: 6.00 Build 0)  -->
<svg version="1.1" id="_x31_" xmlns="http://www.w3.org/2000/svg" xmlns:xlink="http://www.w3.org/1999/xlink" x="0px" y="0px"
	 viewBox="0 0 128 128" style="enable-background:new 0 0 128 128;" xml:space="preserve">
<path d="M117.6,59.2C109.1,37.5,88.2,22,63.8,21.3v-6.1c0-1.1-0.7-1.8-1.8-1.8c-1.1,0-1.8,0.7-1.8,1.8v6.1C35.7,22,15,37.5,6.4,59.2
	c-0.1,0.4-0.1,0.6-0.1,1c0,1.1,1,2.2,2.2,2.2c0.6,0,1.7-0.6,1.7-0.6c2.9-1.4,6.1-2.2,9.4-2.2c9.4,0,17.4,6.1,20.3,14.4
	c0.1,1,1.1,1.7,1.9,1.7c0.7,0,1.2-0.4,1.7-0.7c3.3-6,9.5-10.2,16.6-10.9v46.5c0,4.1,3.3,7.5,7.5,7.5s7.5-3.3,7.5-7.5
	c0-1.2-0.9-2.1-2.1-2.1c-1.2,0-2.1,0.9-2.1,2.1c0,1.8-1.5,3.3-3.3,3.3s-3.3-1.5-3.3-3.3V64.2c7,0.8,13.1,5,16.4,10.8
	c0.4,0.6,1.1,0.7,1.7,0.7c1,0,1.8-0.7,1.9-1.7c2.9-8.5,10.8-14.4,20.3-14.4c3.5,0,6.7,1,9.4,2.2c0,0,1.1,0.6,1.7,0.6
	c1.1,0,2.2-1,2.2-2.2C117.8,59.8,117.8,59.6,117.6,59.2z"/>
</svg>
