<?xml version="1.0" encoding="utf-8"?>
<!-- Generator: Adobe Illustrator 19.2.0, SVG Export Plug-In . SVG Version: 6.00 Build 0)  -->
<svg version="1.1" id="Layer_1" xmlns="http://www.w3.org/2000/svg" xmlns:xlink="http://www.w3.org/1999/xlink" x="0px" y="0px"
	 viewBox="0 0 256 154.5" style="enable-background:new 0 0 256 154.5;" xml:space="preserve">
<path id="XMLID_3_" d="M249.9,97.3c-7.1,0-13.9-1.5-20-4.3c-6.2-2.9-13.2-4.6-20.5-4.6c-7.4,0-14.4,1.7-20.6,4.6
	c-6,2.7-12.8,4.3-20,4.3c-7.1,0-13.9-1.5-20-4.3c-6.2-2.9-13.2-4.6-20.6-4.6c-7.4,0-14.4,1.7-20.6,4.6c-6.1,2.7-12.8,4.3-20,4.3
	c-7.1,0-13.9-1.5-20-4.3c-6.2-2.9-13.1-4.6-20.5-4.6c-7.2,0-14.2,1.7-20.5,4.6c-6.1,2.7-13.3,4.3-19.7,4.3V67.4
	c6.4,0,13.6-1.7,19.7-4.3c6.2-2.9,13-4.6,20.3-4.6c7.2,0,14.4,1.7,20.5,4.6c6.1,2.7,12.8,4.3,20,4.3c7.1,0,13.9-1.7,20-4.3
	c6.2-2.9,13.2-4.6,20.6-4.6c7.2,0,14.2,1.7,20.6,4.6c6,2.7,12.8,4.3,20,4.3c7.1,0,13.9-1.7,20-4.3c6.2-2.9,13.2-4.6,20.6-4.6
	c7.2,0,14.2,1.7,20.5,4.6c6.1,2.7,12.8,4.3,20,4.3 M249.9,113.6c-7.1,0-13.9-1.7-20-4.3c-6.2-2.9-13.2-4.6-20.5-4.6
	c-7.4,0-14.4,1.7-20.6,4.6c-6,2.7-12.8,4.3-20,4.3c-7.1,0-13.9-1.7-20-4.3c-6.2-2.9-13.2-4.6-20.6-4.6c-7.4,0-14.4,1.7-20.6,4.6
	c-6.1,2.7-12.8,4.3-20,4.3c-7.1,0-13.9-1.7-20-4.3c-6.2-2.9-13.2-4.6-20.5-4.6s-14.1,1.7-20.3,4.6c-6.1,2.7-13.3,4.3-19.7,4.3v29.9
	c6.4,0,13.6-1.5,19.7-4.3c6.2-2.9,13.1-4.6,20.5-4.6c7.2,0,14.2,1.7,20.5,4.6c6.1,2.7,12.8,4.3,20,4.3c7.1,0,13.9-1.5,20-4.3
	c6.2-2.9,13.2-4.6,20.6-4.6c7.2,0,14.2,1.7,20.6,4.6c6,2.7,12.8,4.3,20,4.3s13.9-1.5,20-4.3c6.2-2.9,13.2-4.6,20.6-4.6
	c7.2,0,14.2,1.7,20.5,4.6c6.1,2.7,12.8,4.3,20,4.3"/>
<path id="XMLID_1_" d="M249.9,21.3c-7.1,0-13.9-1.7-20-4.3c-6.2-2.9-13.2-4.6-20.5-4.6c-7.4,0-14.4,1.7-20.6,4.6
	c-6,2.7-12.8,4.3-20,4.3c-7.1,0-13.9-1.7-20-4.3c-6.2-2.9-13.2-4.6-20.6-4.6c-7.4,0-14.4,1.7-20.6,4.6c-6.1,2.7-12.8,4.3-20,4.3
	c-7.1,0-13.9-1.7-20-4.3c-6.2-2.9-13.2-4.6-20.5-4.6S33.2,14,27,17c-6.1,2.7-13.3,4.3-19.7,4.3v29.9c6.4,0,13.6-1.5,19.7-4.3
	c6.2-2.9,13.1-4.6,20.5-4.6c7.2,0,14.2,1.7,20.5,4.6c6.1,2.7,12.8,4.3,20,4.3c7.1,0,13.9-1.5,20-4.3c6.2-2.9,13.2-4.6,20.6-4.6
	c7.2,0,14.2,1.7,20.6,4.6c6,2.7,12.8,4.3,20,4.3s13.9-1.5,20-4.3c6.2-2.9,13.2-4.6,20.6-4.6c7.2,0,14.2,1.7,20.5,4.6
	c6.1,2.7,12.8,4.3,20,4.3"/>
</svg>
